<svg xmlns="http://www.w3.org/2000/svg" width="33.638" height="39.685" viewBox="0 0 33.638 39.685">
  <path id="Icon_awesome-file-pdf" data-name="Icon awesome-file-pdf" d="M12.154,17.112a6.447,6.447,0,0,1-.134-3.134C12.582,13.978,12.528,16.444,12.154,17.112Zm-.114,3.154a30.831,30.831,0,0,1-1.9,4.189,24.6,24.6,0,0,1,4.2-1.463A8.655,8.655,0,0,1,12.04,20.266ZM5.753,28.6c0,.053.882-.361,2.332-2.686A9.235,9.235,0,0,0,5.753,28.6ZM16.571,10.691h9.087V32.607a1.6,1.6,0,0,1-1.6,1.6H1.6a1.6,1.6,0,0,1-1.6-1.6V1.6A1.6,1.6,0,0,1,1.6,0H14.967V9.087A1.608,1.608,0,0,0,16.571,10.691ZM16.036,22.17a6.706,6.706,0,0,1-2.853-3.595c.3-1.236.775-3.114.414-4.29a1.673,1.673,0,0,0-3.194-.454c-.334,1.223-.027,2.947.541,5.145a62.742,62.742,0,0,1-2.726,5.733c-.007,0-.007.007-.013.007-1.811.929-4.918,2.973-3.642,4.544A2.076,2.076,0,0,0,6,29.927c1.2,0,2.385-1.2,4.083-4.129a38.086,38.086,0,0,1,5.279-1.55,10.126,10.126,0,0,0,4.276,1.3,1.73,1.73,0,0,0,1.316-2.9c-.929-.909-3.628-.648-4.918-.481ZM25.19,7.016,18.642.468A1.6,1.6,0,0,0,17.506,0h-.4V8.553h8.553V8.145A1.6,1.6,0,0,0,25.19,7.016ZM20.239,24.074c.274-.18-.167-.8-2.86-.6C19.858,24.528,20.239,24.074,20.239,24.074Z" transform="matrix(0.966, -0.259, 0.259, 0.966, 0, 6.641)" fill="#e56353"/>
</svg>
