<svg xmlns="http://www.w3.org/2000/svg" width="32.916" height="40.233" viewBox="0 0 32.916 40.233">
  <path id="Icon_awesome-file-alt" data-name="Icon awesome-file-alt" d="M15.786,9.584V0H1.691A1.687,1.687,0,0,0,0,1.691v32.7a1.687,1.687,0,0,0,1.691,1.691H25.37a1.687,1.687,0,0,0,1.691-1.691V11.276H17.477A1.7,1.7,0,0,1,15.786,9.584ZM20.3,26.216a.848.848,0,0,1-.846.846H7.611a.848.848,0,0,1-.846-.846v-.564a.848.848,0,0,1,.846-.846H19.451a.848.848,0,0,1,.846.846Zm0-4.51a.848.848,0,0,1-.846.846H7.611a.848.848,0,0,1-.846-.846v-.564a.848.848,0,0,1,.846-.846h11.84a.848.848,0,0,1,.846.846Zm0-5.074V17.2a.848.848,0,0,1-.846.846H7.611a.848.848,0,0,1-.846-.846v-.564a.848.848,0,0,1,.846-.846h11.84A.848.848,0,0,1,20.3,16.632Zm6.765-8.041v.43H18.041V0h.43a1.69,1.69,0,0,1,1.2.493l6.9,6.906A1.686,1.686,0,0,1,27.062,8.591Z" transform="matrix(0.985, 0.174, -0.174, 0.985, 6.266, 0)" fill="#98c7e6"/>
</svg>
