<?xml version="1.0" encoding="UTF-8"?>
<svg width="700pt" height="700pt" version="1.1" viewBox="0 0 700 700" xmlns="http://www.w3.org/2000/svg">
 <g fill-rule="evenodd">
  <path d="m350 87.5c-48.324 0-87.5 39.176-87.5 87.5s39.176 87.5 87.5 87.5 87.5-39.176 87.5-87.5-39.176-87.5-87.5-87.5zm-122.5 87.5c0-67.656 54.844-122.5 122.5-122.5s122.5 54.844 122.5 122.5-54.844 122.5-122.5 122.5-122.5-54.844-122.5-122.5z"/>
  <path d="m181.73 449.17h336.55c-8.7578-85.207-80.754-151.67-168.27-151.67s-159.52 66.461-168.27 151.67zm-35.895 17.5c0-112.76 91.41-204.17 204.17-204.17s204.17 91.41 204.17 204.17c0 9.6641-7.8359 17.5-17.5 17.5h-373.34c-9.6641 0-17.5-7.8359-17.5-17.5z"/>
 </g>
</svg>
