<?xml version="1.0" encoding="UTF-8"?>
<svg width="700pt" height="700pt" version="1.1" viewBox="0 0 700 700" xmlns="http://www.w3.org/2000/svg">
 <g>
  <path d="m283.15 70h-93.797c-13.074 0.046875-25.602 5.2617-34.848 14.504-9.2422 9.2461-14.457 21.773-14.504 34.848v93.801-0.003906c0.046875 13.074 5.2617 25.602 14.504 34.848 9.2461 9.2422 21.773 14.457 34.848 14.504h93.801-0.003906c13.074-0.046875 25.602-5.2617 34.848-14.504 9.2422-9.2461 14.457-21.773 14.504-34.848v-93.797c-0.046875-13.074-5.2617-25.602-14.504-34.848-9.2461-9.2422-21.773-14.457-34.848-14.504zm14.352 143.15c0 3.8086-1.5117 7.457-4.2031 10.148s-6.3398 4.2031-10.148 4.2031h-93.797c-3.8086 0-7.457-1.5117-10.148-4.2031s-4.2031-6.3398-4.2031-10.148v-93.797c0-3.8086 1.5117-7.457 4.2031-10.148s6.3398-4.2031 10.148-4.2031h93.801-0.003906c3.8086 0 7.457 1.5117 10.148 4.2031s4.2031 6.3398 4.2031 10.148z"/>
  <path d="m510.65 70h-93.797c-13.074 0.046875-25.602 5.2617-34.848 14.504-9.2422 9.2461-14.457 21.773-14.504 34.848v93.801-0.003906c0.046875 13.074 5.2617 25.602 14.504 34.848 9.2461 9.2422 21.773 14.457 34.848 14.504h93.801-0.003906c13.074-0.046875 25.602-5.2617 34.848-14.504 9.2422-9.2461 14.457-21.773 14.504-34.848v-93.797c-0.046875-13.074-5.2617-25.602-14.504-34.848-9.2461-9.2422-21.773-14.457-34.848-14.504zm14.352 143.15c0 3.8086-1.5117 7.457-4.2031 10.148s-6.3398 4.2031-10.148 4.2031h-93.797c-3.8086 0-7.457-1.5117-10.148-4.2031s-4.2031-6.3398-4.2031-10.148v-93.797c0-3.8086 1.5117-7.457 4.2031-10.148s6.3398-4.2031 10.148-4.2031h93.801-0.003906c3.8086 0 7.457 1.5117 10.148 4.2031s4.2031 6.3398 4.2031 10.148z"/>
  <path d="m283.15 297.5h-93.797c-13.074 0.046875-25.602 5.2617-34.848 14.504-9.2422 9.2461-14.457 21.773-14.504 34.848v93.801-0.003906c0.046875 13.074 5.2617 25.602 14.504 34.848 9.2461 9.2422 21.773 14.457 34.848 14.504h93.801-0.003906c13.074-0.046875 25.602-5.2617 34.848-14.504 9.2422-9.2461 14.457-21.773 14.504-34.848v-93.797c-0.046875-13.074-5.2617-25.602-14.504-34.848-9.2461-9.2422-21.773-14.457-34.848-14.504zm14.352 143.15c0 3.8086-1.5117 7.457-4.2031 10.148s-6.3398 4.2031-10.148 4.2031h-93.797c-3.8086 0-7.457-1.5117-10.148-4.2031s-4.2031-6.3398-4.2031-10.148v-93.797c0-3.8086 1.5117-7.457 4.2031-10.148s6.3398-4.2031 10.148-4.2031h93.801-0.003906c3.8086 0 7.457 1.5117 10.148 4.2031s4.2031 6.3398 4.2031 10.148z"/>
  <path d="m510.65 297.5h-93.797c-13.074 0.046875-25.602 5.2617-34.848 14.504-9.2422 9.2461-14.457 21.773-14.504 34.848v93.801-0.003906c0.046875 13.074 5.2617 25.602 14.504 34.848 9.2461 9.2422 21.773 14.457 34.848 14.504h93.801-0.003906c13.074-0.046875 25.602-5.2617 34.848-14.504 9.2422-9.2461 14.457-21.773 14.504-34.848v-93.797c-0.046875-13.074-5.2617-25.602-14.504-34.848-9.2461-9.2422-21.773-14.457-34.848-14.504zm14.352 143.15c0 3.8086-1.5117 7.457-4.2031 10.148s-6.3398 4.2031-10.148 4.2031h-93.797c-3.8086 0-7.457-1.5117-10.148-4.2031s-4.2031-6.3398-4.2031-10.148v-93.797c0-3.8086 1.5117-7.457 4.2031-10.148s6.3398-4.2031 10.148-4.2031h93.801-0.003906c3.8086 0 7.457 1.5117 10.148 4.2031s4.2031 6.3398 4.2031 10.148z"/>
 </g>
</svg>
